# xmcd
#
# Track frame offsets:
#	183
#	12053
#	22915
#	36503
#	46385
#	60045
#	72300
#	84790
#	102788
#	112683
#	125840
#	139658
#	151905
#	162233
#	175975
#	186325
#	198893
#	211795
#	224445
#	236548
#
# Disc length: 3284 seconds
#
# Revision: 4
# Processed by: cddbd v1.5.2PL0 Copyright (c) Steve Scherf et al.
# Submitted via: audiograbber 1.83.01
#
DISCID=010cd214
DTITLE=Country Mix - 20 Big Country Classics
DYEAR=1988
DGENRE=Country
TTITLE0=Johnny Cash - Folsom Prison Blues
TTITLE1=Jim Reeves - I Guess Im' Crazy
TTITLE2=Patsy Cline - She's Got You
TTITLE3=Eddy Arnold - What's  He Doin' In My World
TTITLE4=Jimmy Dean - Big Bad John
TTITLE5=Jack Greene - All The Time
TTITLE6=Sonny James - Running Bear
TTITLE7=Bobby Goldsboro - Honey
TTITLE8=Buck Owens - I Don't Care
TTITLE9=Marty Robbins - Devil Woman
TTITLE10=Charley Pride - All I Have To Offer You Is Me
TTITLE11=Tammy Wynette - Stand By Your Man
TTITLE12=David Houston - With One Exception
TTITLE13=Ray Price - City Lights
TTITLE14=Leroy Van Dyke - Walk On By
TTITLE15=Bill Anderson - Still
TTITLE16=Conway Twitty - Next In Line
TTITLE17=Hank Snow - I've Been Everywhere
TTITLE18=Glen Campbell - Galveston
TTITLE19=Buck Owens - I Got A Tiger By The Tail
EXTD=
EXTT0=Johnny Cash
EXTT1=Jim Reeves
EXTT2=Patsy Cline
EXTT3=Eddy Arnold
EXTT4=Jimmy Dean
EXTT5=Jack Greene
EXTT6=Sonny Jones
EXTT7=Bobby Goldsboro
EXTT8=Buck Owens
EXTT9=Marty Robins
EXTT10=Charley Pride
EXTT11=Tammy Wynette
EXTT12=David Houston
EXTT13=Ray Price
EXTT14=Leroy Van Dyke
EXTT15=Bill Anderson
EXTT16=Conway Twitty
EXTT17=Hank Snow
EXTT18=Glen Campbell
EXTT19=Buck Owens
PLAYORDER=
